<svg xmlns="http://www.w3.org/2000/svg" viewBox="0 0 500 500"><g id="freepik--Streetlight--inject-5"><g id="freepik--street-lights--inject-5"><path d="M82.66,315.19a12.05,12.05,0,0,0-10.94,0,3.33,3.33,0,0,0,0,6.31,12.05,12.05,0,0,0,10.94,0,3.33,3.33,0,0,0,0-6.31Z" style="fill:#455a64"></path><path d="M84.92,318.35a3.83,3.83,0,0,0-2.26-3.16,12.05,12.05,0,0,0-10.94,0,3.84,3.84,0,0,0-2.27,3.16v1.86a3.84,3.84,0,0,0,2.27,3.16,12.05,12.05,0,0,0,10.94,0,3.83,3.83,0,0,0,2.26-3.16Z" style="fill:#263238"></path><path d="M82.66,315.19a12.05,12.05,0,0,0-10.94,0,3.33,3.33,0,0,0,0,6.31,12.05,12.05,0,0,0,10.94,0,3.33,3.33,0,0,0,0-6.31Z" style="fill:#455a64"></path><path d="M71.46,176.3A2.84,2.84,0,0,1,73.13,174a9,9,0,0,1,8.11,0,2.84,2.84,0,0,1,1.68,2.34V317.81a2.85,2.85,0,0,1-1.68,2.34,9,9,0,0,1-8.11,0,2.86,2.86,0,0,1-1.67-2.34Z" style="fill:#37474f"></path><path d="M81.24,174a9,9,0,0,0-8.1,0,2.47,2.47,0,0,0,0,4.68,9,9,0,0,0,8.1,0,2.47,2.47,0,0,0,0-4.68Z" style="fill:#455a64"></path><path d="M78.13,35.23V176.29a.48.48,0,0,1-.27.39,1.48,1.48,0,0,1-1.33,0,.47.47,0,0,1-.28-.39V35.23a.94.94,0,1,1,1.88,0Z" style="fill:#263238"></path><path d="M78,64.81h-1.7A21.06,21.06,0,0,1,87.08,46.87c7.26-4.23,15.87-4.14,23.61.25l-.84,1.48c-7.2-4.08-15.19-4.18-21.91-.26A19.36,19.36,0,0,0,78,64.81Z" style="fill:#263238"></path><path d="M78,64.81h-1.7a19.37,19.37,0,0,0-9.91-16.47c-6.72-3.92-14.71-3.82-21.91.26l-.84-1.48c7.74-4.39,16.35-4.48,23.61-.25A21.07,21.07,0,0,1,78,64.81Z" style="fill:#263238"></path><path d="M109.65,53.7l4.22,2.93c3.36,2.34,8.78,2.68,12.11.76,1.54-.89,2.29-2,2.29-3.1,0-.41,0-2,0-2.36,0-1.27-1-2.53-3-3.45l-6.64-3c-3.73-1.72-8.6-2-10.9-.7a2.29,2.29,0,0,0-1.26,2.06c0,.41,0,2,0,2.35C106.44,50.53,107.55,52.23,109.65,53.7Z" style="fill:#263238"></path><path d="M107.72,44.73c-2.3,1.32-1.43,4.3,1.93,6.64l4.22,2.93c3.36,2.34,8.78,2.68,12.11.76s3-4.87-.71-6.58l-6.65-3C114.89,43.71,110,43.4,107.72,44.73Z" style="fill:#37474f"></path><path d="M107.44,46.75a1.37,1.37,0,0,1,.78-1.15,7.3,7.3,0,0,1,3.45-.69,16.41,16.41,0,0,1,6.52,1.43l6.65,3.06c1.51.69,2.39,1.6,2.43,2.49s-.6,1.6-1.79,2.29a9.55,9.55,0,0,1-4.7,1.11,11.39,11.39,0,0,1-6.34-1.82l-4.21-2.94C108.49,49.33,107.4,47.84,107.44,46.75Z" style="fill:#455a64"></path><path d="M43.23,53.7,39,56.63c-3.36,2.34-8.79,2.68-12.12.76-1.53-.89-2.29-2-2.29-3.1,0-.41,0-2,0-2.36,0-1.27,1-2.53,3-3.45l6.65-3c3.72-1.72,8.6-2,10.89-.7a2.3,2.3,0,0,1,1.27,2.06c0,.41,0,2,0,2.35C46.43,50.53,45.33,52.23,43.23,53.7Z" style="fill:#263238"></path><path d="M45.15,44.73c2.3,1.32,1.44,4.3-1.92,6.64L39,54.3c-3.36,2.34-8.79,2.68-12.11.76s-3-4.87.71-6.58l6.65-3C38,43.71,42.86,43.4,45.15,44.73Z" style="fill:#37474f"></path><path d="M45.43,46.75a1.37,1.37,0,0,0-.78-1.15,7.27,7.27,0,0,0-3.45-.69,16.45,16.45,0,0,0-6.52,1.43L28,49.4c-1.5.69-2.38,1.6-2.42,2.49s.59,1.6,1.79,2.29a9.51,9.51,0,0,0,4.69,1.11,11.39,11.39,0,0,0,6.34-1.82l4.21-2.94C44.38,49.33,45.47,47.84,45.43,46.75Z" style="fill:#455a64"></path></g></g><g id="freepik--Clouds--inject-5"><path id="freepik--Cloud--inject-5" d="M273.53,40a2.69,2.69,0,0,0,2.82-1.52c1.35-2.85,5.06-4.76,9.15-5.14,5.05-.48,8.87,1.31,10.1,4.68a2.51,2.51,0,0,0,2.71,1.58c2.3-.33,4.35.32,5.17,2.09a2.6,2.6,0,0,0,2.74,1.41,12.67,12.67,0,0,1,3.89.09,5.43,5.43,0,0,1,3.46,3v0a2.64,2.64,0,0,0,2.77,1.69c2.48-.31,5.5-.13,6.46,1.41,1.95,3.14-4.22,3.75-7.42,3.2a2.57,2.57,0,0,0-2.11.59c-2,1.68-8,2-11,.54a2.47,2.47,0,0,0-2.4.06,13.31,13.31,0,0,1-6.41,1.58c-4.35.26-7.23-1-10.48-2.65a2.63,2.63,0,0,0-2.59.14c-3.83,2.4-9.3,2.45-12.9-.21a2.72,2.72,0,0,0-2.41-.48,9.48,9.48,0,0,1-4.6.07,4.19,4.19,0,0,1-1-.36,2.61,2.61,0,0,0-1.94-.13c-.44.13-.9.23-1.36.33-2.76.58-7.88,0-5.73-2.51a5.93,5.93,0,0,1,3.46-1.18,2.59,2.59,0,0,0,1.73-.85,7.92,7.92,0,0,1,6.07-2.45,2.69,2.69,0,0,0,2.67-1.38A7.82,7.82,0,0,1,270.2,40,12,12,0,0,1,273.53,40Z" style="fill:#ebebeb"></path><path id="freepik--cloud--inject-5" d="M361.82,30.82c0-2.92,3.21-5,6.84-5.3,4.27-.4,7.31,1.51,7.41,4.87,2.79-1.14,5.74-.41,5.52,2.67.73-.84,3.45-.82,4.43-.58a3.78,3.78,0,0,1,2.43,2.07,2.86,2.86,0,0,1,.26,1.58c1.63-.54,5.34-.87,6.26.63,1.65,2.66-4.94,2.75-6.27,1.94-.28,2.07-7.37,2.41-9.08.5-1.35,1.35-3.27,1.65-5.35,1.77-3.51.21-5.66-1-8.39-2.37-3,2.52-8.12,2.56-10.8-.32-.68.65-2.57.84-4.07.48-1-.23-1.22-.65-1.22-.65a8.62,8.62,0,0,1-1.82.54c-2,.41-5.56,0-4.05-1.77a4.52,4.52,0,0,1,3.21-.79c.85-1.67,4.26-3.25,6.21-1.84.07-2,1.92-3.6,4.52-4C358.73,30.11,360.82,30,361.82,30.82Z" style="fill:#ebebeb"></path></g><g id="freepik--Carpet--inject-5"><polygon id="freepik--carpet--inject-5" points="355.61 271.44 477.47 341.8 420.61 374.63 298.74 304.27 355.61 271.44" style="fill:#BA68C8"></polygon></g><g id="freepik--Shadows--inject-5"><path id="freepik--Shadow--inject-5" d="M346.23,200.53l88.58,50.93c12.5,7.18,11,19.71-3.32,28L173.29,428.06c-71.7,41.5-191.36-44.69-134-76.82L304.12,198.42C318.46,190.15,333.73,193.35,346.23,200.53Z" style="opacity:0.15"></path><ellipse id="freepik--shadow--inject-5" cx="296.91" cy="399.41" rx="35.64" ry="20.57" style="opacity:0.1"></ellipse></g><g id="freepik--Limousine--inject-5"><g id="freepik--limousine--inject-5"><g id="freepik--back-car--inject-5"><polygon points="426.68 245.99 393 226.54 411.71 215.74 429.92 227.24 426.68 245.99" style="fill:#263238"></polygon><path d="M412.48,241.37l4.84-9.6-11.51-6.67h0c-3.66-2.11-8.54-1.87-13.89,1.22-11.37,6.56-20.58,23.49-20.58,37.81,0,7.5,2.53,12.79,6.57,15.19h0l.17.1h0l11.8,6.81,5.1-10.13C404.65,268.72,412.11,254.15,412.48,241.37Z" style="fill:#37474f"></path><path d="M412.48,241.37l4.84-9.6-11.51-6.67h0c-3.66-2.11-8.54-1.87-13.89,1.22-11.37,6.56-20.58,23.49-20.58,37.81,0,7.5,2.53,12.79,6.57,15.19h0l.17.1h0l11.8,6.81,5.1-10.13C404.65,268.72,412.11,254.15,412.48,241.37Z" style="fill:#263238"></path><path d="M424.48,247.28c0,12.35-6.86,26.64-16,34.54,0,0,0,0,0,0a31,31,0,0,1-4.51,3.23c-11.37,6.57-20.59.28-20.59-14,0-10.81,5.27-23.13,12.74-31.33l.06-.06a33.3,33.3,0,0,1,7.79-6.42C415.26,226.68,424.48,233,424.48,247.28Z" style="fill:#37474f"></path><path d="M403.9,241.88c7.23-4.17,13.09.18,13.09,9.73s-5.86,20.67-13.09,24.84-13.1-.17-13.1-9.72S396.66,246.06,403.9,241.88Z" style="fill:#455a64"></path><path d="M409.79,256.48c-.46,4.75-3.48,9.81-6.73,11.29a3.17,3.17,0,0,1-3.56-.27c-1.16-1-1.76-3-1.5-5.65.46-4.75,3.47-9.8,6.73-11.28a3.69,3.69,0,0,1,2.39-.34,0,0,0,0,1,0,0C409,250.69,410.13,253,409.79,256.48Z" style="fill:#fafafa"></path><path d="M408.62,255.88c-.46,4.75-3.48,9.8-6.73,11.28a3.68,3.68,0,0,1-2.39.34c-1.16-1-1.76-3-1.5-5.65.46-4.75,3.47-9.8,6.73-11.28a3.69,3.69,0,0,1,2.39-.34,0,0,0,0,1,0,0C408.28,251.22,408.88,253.22,408.62,255.88Z" style="fill:#e0e0e0"></path><path d="M424.48,247.28c0,12.35-6.86,26.64-16,34.54a58.4,58.4,0,0,0,13.05-25.26c1.74-8.25,1.09-20.1-6-23.1s-16.43,3.32-19.39,6.2a33.3,33.3,0,0,1,7.79-6.42C415.26,226.68,424.48,233,424.48,247.28Z" style="fill:#455a64"></path><path d="M430,199.29c-3.11-7.36-13.58-14.92-21.79-16.74-2.38-6.16-55.52-35.65-63.7-32.48h0a11.76,11.76,0,0,0-4.92-2.72h0c-4-1-20.37-6.57-39.88,2.39a91.42,91.42,0,0,0-17.66-.86,16.4,16.4,0,0,0-3.73,1.1,11.28,11.28,0,0,0-1.85.19c-12.52,3.92-85.79,43.43-122.32,64.62-10.71,6.16-18.25,10.79-20.21,12.55a3.39,3.39,0,0,0-.33.33,285.2,285.2,0,0,0-39.34,40.88,2.11,2.11,0,0,0-.28.81C52.18,299,29.31,311.48,34.23,345.49c0,0,.05.73.23,2.19h0c0,.3.09.63.14,1v.07c0,.36.1.74.17,1.15l0,.13c.06.41.13.86.21,1.33l0,.1c.08.5.17,1,.27,1.58v0c.07.42.16.86.25,1.31,0,.21.09.42.14.63s.11.5.17.75l.21.89.12.46c2,7.69,6.3,17.93,15.19,24.21,9.72,6.86,10.4,7.37,23.57,14.47s31,12.31,48.25,11.75a84.62,84.62,0,0,0,25.25-4.68l0,0c1.23-.45,2.39-.91,3.47-1.38l.12-.06c.53-.23,1-.47,1.53-.71h0c.46-.22.9-.45,1.32-.68l.17-.1c.42-.23.83-.47,1.2-.7l0,0c.35-.21.67-.43,1-.65l.18-.13c.31-.22.6-.45.86-.67l.05,0a7.55,7.55,0,0,0,.64-.61l.15-.15a7.21,7.21,0,0,0,.52-.63v0a3.35,3.35,0,0,0,.33-.57l.06-.15a2.13,2.13,0,0,0,.16-.57c.12-1,.26-2,.44-3s.4-2,.65-3a60.69,60.69,0,0,1,5.76-14.7A59.66,59.66,0,0,1,172,366.7a47.5,47.5,0,0,1,7.86-8.18c.7-.57,1.42-1.11,2.14-1.61s1.53-1,2.3-1.47,1.56-.85,2.33-1.2a19.37,19.37,0,0,1,7.57-1.91,13.06,13.06,0,0,1,4.72.73c.29.11.57.22.85.35,4.77,2.13,8,7.35,8.72,15,0,.23,0,.49,0,.76a2.09,2.09,0,0,1,0,.25c0,.2,0,.4,0,.6v.26c0,.18,0,.36,0,.54V372h0l168.09-97a38.24,38.24,0,0,1,.2-4c1.53-15.75,13.08-34,25.45-41.17,13.44-7.76,24.33-.51,24.33,16.2l2.17-1.26C436.59,240.06,434.17,209.13,430,199.29Z" style="fill:#37474f"></path><path d="M260,299.82c2.13-1.15,34.72-18.78,61.18-33.35a12.09,12.09,0,0,0-.87-2.14C293.19,280.48,262.33,298.43,260,299.82Zm-8.2,3.42L206,329.52l47.25-23.23A3.5,3.5,0,0,0,251.84,303.24ZM417.32,189.38c-2.74-1.52-5.28-3.56-8.57-2.32a1.77,1.77,0,0,0-.66.36,2.38,2.38,0,0,0-.55,1.19c-2.64,10.23-11,17.9-17.78,25.64-6.63,7.58-13.88,15.15-31.07,26.65-5.78,3.87-18.64,11.69-33.23,20.39a13,13,0,0,1,1.09,2.24c9.2-5.08,17.28-9.59,22.49-12.6,21.13-12.19,47.62-26.39,59.24-36.68S426.28,194.37,417.32,189.38Zm-88.43-42.49a41.15,41.15,0,0,0-22.62,2.56,121.37,121.37,0,0,0-13.43,6.79s-2.53,3.31,10,.38c9.09-2.14,18.37-4.35,21.84-5.11C332.86,149.69,339.26,148.82,328.89,146.89Z" style="fill:#455a64"></path><path d="M250.64,306.88l-2.7,1.56c-1.83,1.06-3.31,2.72-3.31,3.71v1.31a.28.28,0,0,0,.42.24l8.28-4.78a1.25,1.25,0,0,0,.63-1.08v-1.07C254,305.77,252.47,305.83,250.64,306.88Zm114.88-67.14-2.7,1.56c-1.83,1.06-3.31,2.72-3.31,3.71v1.31a.28.28,0,0,0,.42.24l8.28-4.78a1.25,1.25,0,0,0,.63-1.08v-1.07C368.84,238.63,367.35,238.69,365.52,239.74Z" style="fill:#263238"></path><path d="M210.48,349.64c-1.15-8.43-1-22.54-1-22.54-1.38,6.31-.81,21.61,0,31.42s2.66,8.89,4.62,7.44l43.25-25.54-43.25,20.9C212,362.4,211.63,358.06,210.48,349.64Zm44.21-48.44s2.62,3.07,2.62,9.72c0,8,.09,27,.09,27s1.48-21.15,2.38-27.78-2.47-10.38-2.47-10.38ZM327.38,158c6.75-4,10.6-6.73,9.83-7.18s-6.48,1.36-15,4.6c.92.43,1.83.88,2.73,1.33S326.56,157.54,327.38,158ZM379.83,224s6.83,2.36,8.72,4.37a44.42,44.42,0,0,1,4.45,6.68s-1.17-5.71-2.81-7.85S379.83,224,379.83,224Zm51.8-19.22S430.85,215.73,429,219s-10.56,8.24-10.56,8.24,9.62-3.94,11.79-6.93S431.63,204.82,431.63,204.82ZM323.46,261l-2.61,1.44s2.62,3.06,2.62,9.72c0,8,.08,27,.08,27S325,278,325.93,271.32,323.46,261,323.46,261Zm48.21-4.24c-1.15,9.76-1.56,14.56-3.58,15.82l-43.25,29,43.25-24.41c2-.81,3.81-2,4.62-12.77s1.38-26.7,0-31.42A236,236,0,0,1,371.67,256.71Z" style="opacity:0.15"></path><path d="M399.23,203.57c-2.52,3.08-4.21,4.82-6.82,7.73,0,0-10.48-.62-23-1.08-10.1-.37-25.14,0-25.14,0-2.53.09-89.2,48.58-92.56,50.41-.34.17-22.89,11.89-28.5,16.62-3,2.55-4.24,4.75-6.7,8.63.38-.79,2.92-6.57-2.08-8.83-5.37-2.44-27-10.62-42.6-18.87-13.13-6.92-32.58-24.48-35.3-25.46-3.36-1.23-10.23,4.07-10.23,4.07a110.94,110.94,0,0,1,7.31-9.14c5.12-5.93,116.27-67,142.22-77.29a26.85,26.85,0,0,1,6.22-1.5c11.44-.72,24.48,1.71,32.12,3.69,1.48.39,2.78.75,3.82,1.08l.08,0,.8.29a59.16,59.16,0,0,1,6.08,2.74c7.41,3.67,14.6,7.81,21.76,12q13,7.57,25.84,15.52c8.64,5.33,17.63,10.43,25,17.49A10,10,0,0,1,399.23,203.57Z" style="fill:#263238"></path><path d="M220.47,279.14a173.78,173.78,0,0,1,21.85-15c11.17-6.54,79.24-46.38,97.83-54.76,4.16-1.87,12.84-2,14.9-2,10.39,0,20.8.28,31.19.37a2.8,2.8,0,0,0,1.38-.23.94.94,0,0,0,.44-1.19,1.35,1.35,0,0,0-.78-.5c-7.17-2.54-18.45-3.41-25.25-6.86-5.83-3-11.53-6.21-17.22-9.45-15.63-8.92-30.36-17.38-45.88-27.71-14.47-9.63-16.6-12.63-22.5-11.61-16.46,5.16-138,71.87-142.86,77.5l-.06.06.06,2.83s.85.76,2.35,2a3.39,3.39,0,0,1,.57.13c2.46.9,18.67,15.4,31.46,23.27,1.27.76,2.56,1.5,3.84,2.2,13.48,7.12,31.37,14.17,39.5,17.54C216.83,277.86,220.47,279.14,220.47,279.14Z" style="fill:#455a64"></path><path d="M372.54,188.37c-18.25-10.53-31.24-18.57-45.4-26.75a45.87,45.87,0,0,0-16.84-6.26c-3.54-.56-9.42-1.6-12.6-1.55-5.4.21-2.25,3.27,8.54,9.5s40.26,24.16,46.53,27.78a81.51,81.51,0,0,0,28.12,10.53C393.28,203.64,402.58,205.72,372.54,188.37Z" style="fill:#455a64"></path><path d="M373.68,210.74c-3.56-2.2-19.53-2.11-26.1-2.41a21.81,21.81,0,0,0-8.77,1.58c-19.73,8.65-83.51,46.83-87.14,48.75l-.87.48c-3.46,2.06-21.86,12.91-27.26,15.94s-6.23,6.83-8.86,12.29-17.54,36.12-18.34,40.35,21.56-7.25,21.56-7.25l32.9-19c1.29-.75,1.64-1,3.19-1.94s104.22-60.94,111.91-67.25c3.83-3.14,4.91-5.36,6.38-10.9C374,214.8,375.9,212.13,373.68,210.74Z"></path><path d="M382.6,211c-5.26,0-5.48,2.74-7.19,8.16-1.35,4.26-3.43,8-.9,6.79s11.3-10.61,12.92-12.23C390.8,210.33,385,211,382.6,211Z"></path><path d="M313.11,227.82c-16,9.14-24.2,13.71-48.18,27.26a5.5,5.5,0,0,0-2.52,4.33v28.82c0,1.6,1.14,2.28,2.52,1.48,25.09-14.48,31.1-18.43,48.18-28.16a5.54,5.54,0,0,0,2.52-4.34V229.28C315.63,227.68,314.5,227,313.11,227.82ZM252,262.41h0c-3.48,2.07-19.68,11.1-25.5,14.36-2.64,1.48-4.62,4.86-6.65,9.77s-13,27.93-16.89,37.51c.13-.05,18.68-8.65,31.25-16.11,9.79-5.81,14.46-8,17-9.55a5.15,5.15,0,0,0,2.74-5V265c0-.63,0-1.16-.06-1.61A1.21,1.21,0,0,0,252,262.41Zm91.63-51.12A12.66,12.66,0,0,0,339,213c-6,3.19-8.86,4.74-12.34,6.7h0a5,5,0,0,0-1.83,3.05q-.06.73-.06,1.68v26c0,1.65.22,3.19,2.74,1.84s34.74-20.44,37.3-22.52c3.3-2.67,5.72-13.74,6.34-16.41C371.93,210.07,347.25,210.65,343.58,211.29Z" style="fill:#263238"></path><path d="M318.2,228.21a.37.37,0,0,0-.37.36v27.22a.37.37,0,0,0,.37.36.36.36,0,0,0,.36-.36V228.57A.36.36,0,0,0,318.2,228.21Zm2-1.14a.36.36,0,0,0-.36.36v27.22a.36.36,0,0,0,.72,0V227.43A.36.36,0,0,0,320.16,227.07Zm2-1.13a.37.37,0,0,0-.37.36v27.22a.37.37,0,0,0,.37.36.36.36,0,0,0,.36-.36V226.3A.36.36,0,0,0,322.13,225.94Zm-66,38.05a.37.37,0,0,0-.37.36v27.22a.37.37,0,0,0,.37.36.36.36,0,0,0,.36-.36V264.35A.36.36,0,0,0,256.12,264Zm3.92-2.27a.36.36,0,0,0-.36.36V289.3a.36.36,0,0,0,.36.36.37.37,0,0,0,.37-.36V262.08A.37.37,0,0,0,260,261.72Zm-2,1.13a.37.37,0,0,0-.36.37v27.21a.36.36,0,1,0,.72,0V263.22A.37.37,0,0,0,258.08,262.85Z" style="fill:#e0e0e0"></path></g><g id="freepik--front-car--inject-5"><path d="M99.62,262.61h0l-.76,3.15c-1.74,3.26-5.59,7.38-7,7s-2-2.1-2.38-4.32v0a23.57,23.57,0,0,1-.32-3.22c-.12-3.49,1.44-11.63,6.28-13.8a2.52,2.52,0,0,1,2.88.65,5.75,5.75,0,0,1,1.4,2.31C100.56,256.84,99.73,262.48,99.62,262.61Z" style="fill:#263238"></path><path d="M98.86,265.76c-1.74,3.26-5.59,7.38-7,7s-2-2.1-2.38-4.32v0a23.57,23.57,0,0,1-.32-3.22c-.12-3.49,1.44-11.63,6.28-13.8a2.52,2.52,0,0,1,2.88.65l-.67,1.5c-3.39,1.45-4.3,6.68-4,10.66S96.92,267.81,98.86,265.76Z" style="fill:#455a64"></path><path d="M99.74,254.39c-1.23-1.29-4.27-1.36-6.83,2.16s-3.39,9.56-3.4,11.9a22.22,22.22,0,0,1-.33-3.22c-.12-3.49,1.44-11.63,6.28-13.8C97.49,250.53,99.16,252.6,99.74,254.39Z" style="fill:#37474f"></path><polygon points="208.6 371.97 174.93 352.19 193.64 341.38 208.6 350.06 208.6 371.97" style="fill:#263238"></polygon><path d="M194.74,366.8l4.84-9.61-11.51-6.66h0c-3.66-2.1-8.54-1.86-13.89,1.23-11.37,6.56-20.58,23.49-20.58,37.81,0,7.49,2.52,12.78,6.56,15.19h0l.16.09,0,0,11.8,6.81,5.1-10.13C186.9,394.15,194.36,379.57,194.74,366.8Z" style="fill:#37474f"></path><path d="M194.74,366.8l4.84-9.61-11.51-6.66h0c-3.66-2.1-8.54-1.86-13.89,1.23-11.37,6.56-20.58,23.49-20.58,37.81,0,7.49,2.52,12.78,6.56,15.19h0l.16.09,0,0,11.8,6.81,5.1-10.13C186.9,394.15,194.36,379.57,194.74,366.8Z" style="fill:#263238"></path><path d="M206.74,372.71c0,12.35-6.86,26.63-16,34.54l0,0a30.57,30.57,0,0,1-4.52,3.23c-11.36,6.57-20.59.28-20.58-14,0-10.82,5.26-23.13,12.74-31.33l.06-.07a33.45,33.45,0,0,1,7.78-6.41C197.52,352.11,206.74,358.39,206.74,372.71Z" style="fill:#37474f"></path><path d="M186.15,367.31c7.24-4.18,13.1.18,13.1,9.72s-5.86,20.67-13.1,24.85-13.09-.18-13.09-9.72S178.92,371.49,186.15,367.31Z" style="fill:#455a64"></path><path d="M192.07,382c-.5,4.75-3.55,9.78-6.82,11.24a3.17,3.17,0,0,1-3.56-.3c-1.15-1-1.73-3-1.45-5.65.49-4.75,3.54-9.79,6.81-11.24a3.62,3.62,0,0,1,2.4-.31h0C191.34,376.15,192.43,378.5,192.07,382Z" style="fill:#fafafa"></path><path d="M190.9,381.34c-.49,4.75-3.55,9.78-6.81,11.24a3.69,3.69,0,0,1-2.4.31c-1.15-1-1.73-3-1.45-5.65.49-4.75,3.54-9.79,6.81-11.24a3.62,3.62,0,0,1,2.4-.31h0C190.6,376.68,191.18,378.68,190.9,381.34Z" style="fill:#e0e0e0"></path><path d="M206.74,372.71c0,12.35-6.86,26.63-16,34.54a58.4,58.4,0,0,0,13-25.26c1.74-8.26,1.09-20.1-6-23.1s-16.43,3.32-19.39,6.19a33.45,33.45,0,0,1,7.78-6.41C197.52,352.11,206.74,358.39,206.74,372.71Z" style="fill:#455a64"></path><path d="M208.67,323.2s-2-.37-1.5-2.07c0,0-11.47,5.25-13.88,6.05-5.26,1.73-25-5.3-46.23-16.82-4.24-2.52-15.93-8.47-28.28-17.09-5.23-3.51-9.75-6.85-13.77-10.12A66.23,66.23,0,0,1,95.7,274c-.67-.83-2.07-3.1-1.25-5-42.09,29.94-65.16,42.34-60.22,76.49A75.18,75.18,0,0,0,35.3,353c1.39,7.7,5.51,20.8,16.09,28.27,9.72,6.86,10.4,7.37,23.58,14.47s30.94,12.31,48.24,11.75c19.5-.63,36.56-8.06,37.09-12.57a47.79,47.79,0,0,1,1.09-6,60.69,60.69,0,0,1,5.76-14.7c3.89-7.08,9.1-13.3,14.89-17.32.76-.53,1.53-1,2.3-1.47,12.53-7.24,22.86-1.41,24.19,13,.09,1,.08,2.44.08,3.57Z" style="fill:#455a64"></path><path d="M208.53,368.4c.07.77.08,1.74.08,2.66l.06-47.86a2.17,2.17,0,0,1-1.44-1L198,327.1c-2.8,10.25-10.73,6.65-34.66,26.08-20.91,17-24,33.56-25.66,52.66,12.81-2.6,22.28-7.54,22.67-10.88a47.79,47.79,0,0,1,1.09-6,60.69,60.69,0,0,1,5.76-14.7c3.89-7.08,9.1-13.3,14.89-17.32.76-.53,1.53-1,2.3-1.47C196.88,348.2,207.2,354,208.53,368.4Z" style="fill:#37474f"></path><path d="M171.56,336.56c-18.06,5.61-49.13,14-50.44,15.84s6.17,1.73,16.71,6.91c5.45,2.68,6.09,6.28,10.19,3s33.77-24.51,40.78-27.52C196.71,331.43,189.51,331,171.56,336.56ZM90.09,278c-1.89-.41-30.37,20.72-34.07,24.41s-2.11,3.59,1,9.71c3.83,7.48-.63,14.05,2.08,13.53,1.34-.26,7.12-12.2,15.59-23.81C83.37,289.94,93.31,278.67,90.09,278Z" style="fill:#fff;opacity:0.1"></path><path d="M61.1,329.58,97.93,281A193.91,193.91,0,0,0,61.1,329.58Zm42.07,24.29,80.27-23.06C135.69,337.06,103.17,353.87,103.17,353.87Zm5.9,32.39c-19.56-.64-36.79-11.4-50.1-19.21s-22.26-18.92-24.81-26.22c1.62,9.3,10,21.56,24.14,30.17C72,379.28,86.09,389.45,109.07,389s33.05-16.57,33.05-16.57S128.64,386.9,109.07,386.26Z" style="fill:#37474f"></path><path d="M139.16,369.76a84.21,84.21,0,0,1,23.72,11.4A36.73,36.73,0,0,0,139.16,369.76Z" style="fill:#263238"></path><path d="M156.61,374.92s1.19.71,1.82,1.13c4.65-11.81,13.47-21.09,20.83-23.65C171.29,353,160.71,361.21,156.61,374.92Zm-1.43,17.55a43.15,43.15,0,0,1,2.32-13.86l-1.63-.83A44.63,44.63,0,0,0,155.18,392.47Z" style="fill:#455a64"></path><path d="M34.46,347.68c.16,1.25.42,3,.84,5.36a57.09,57.09,0,0,0,3.25,11.18,3.08,3.08,0,0,0,1.67,1c1.55-.1.22-2.77-.88-6.75S35.47,350.63,34.46,347.68Zm100.95,41.45c-1.2-.17-4.17.63-9.23,2.08s-6.29,1.59-8.16,2.88c-1.59,1.1-5.83,4.55-7.88,5.61-3.24,1.67,0,2.88,9.08,2.89s12.14-2.71,14.23-5.5S138.13,389.51,135.41,389.13Z" style="fill:#fff;opacity:0.2"></path><path d="M93.46,398c-12.14-3-20.95-7.8-29.56-12.88s-14.22-9.82-17.43-13.85c-3-3.81-4.87-8.75-3-8.06,3.18,2.74,10.05,8.56,14.43,11.21,13.11,7.95,27,17.8,48.45,18.17a17.3,17.3,0,0,1,4.12.32C115.73,394.47,101.72,400.06,93.46,398Z" style="fill:#263238"></path><path d="M59.43,336.66a214.19,214.19,0,0,0,38.48,22.15c2,.91,3,3.31,1.71,5.09a23.51,23.51,0,0,1-7.28,6.43c-1.93,1.05-5.42.73-7.48-.06Q67.54,363.69,56,353.76c-1.67-1.43-3.62-4.35-3.69-6.55a28.68,28.68,0,0,1,1.45-10.11C54.52,335.05,57.66,335.36,59.43,336.66Z" style="fill:#e0e0e0;opacity:0.85"></path><path d="M89.07,368.61a10.15,10.15,0,0,1-3.36-.57C74.46,363.76,65,358.35,57.52,352c-1.43-1.23-2.82-3.57-2.86-4.82a26.39,26.39,0,0,1,1.25-9.07c.38-.78,1.64.19,2.1.53A217.87,217.87,0,0,0,96.92,361a1.58,1.58,0,0,1,.87.95.6.6,0,0,1-.1.56,21.14,21.14,0,0,1-6.49,5.74A4.88,4.88,0,0,1,89.07,368.61Z" style="fill:#263238"></path><path d="M98.48,363l.13-.38a201.37,201.37,0,0,1-23.87-11.77c.6-1.21,1-1.95,1-2l-2.07-1.18c0,.08-.44.77-1,1.9-8.87-5.5-17.35-11.6-17.44-11.66l-.23.32c.09.06,8.6,6.19,17.49,11.7L72,351c-8.87-5.5-16.83-11.3-16.92-11.36l-.23.32c.08.06,8.08,5.89,17,11.4-.16.34-.32.7-.49,1.08-8.89-5.51-16.35-11-16.42-11.08l-.24.33c.08.05,7.57,5.59,16.5,11.11-.15.35-.31.72-.46,1.09-8.95-5.52-15.9-10.75-16-10.8l-.24.32c.07,0,7.06,5.31,16.06,10.85-.15.36-.3.73-.44,1.11-9-5.57-15.48-10.51-15.54-10.56l-.25.32c.07.05,6.55,5,15.65,10.62-.14.37-.28.74-.41,1.12a176.07,176.07,0,0,1-15.16-10.33l-.25.31a174.53,174.53,0,0,0,15.25,10.39l0,0c-.13.37-.25.75-.37,1.13l-.26-.15a147.68,147.68,0,0,1-14.55-10l-.26.31a149.59,149.59,0,0,0,14.61,10l.33.2c-.28.91-.54,1.83-.76,2.77l2.32.56c.17-.7.36-1.39.56-2.08a154.55,154.55,0,0,0,20.27,9.67l.13-.37a154.92,154.92,0,0,1-20.28-9.69c.11-.38.24-.76.36-1.14a161.74,161.74,0,0,0,21,10.08l.13-.37a163.12,163.12,0,0,1-21-10.09c.13-.38.27-.75.4-1.12a169.29,169.29,0,0,0,21.65,10.46l.12-.38a167.43,167.43,0,0,1-21.63-10.46c.15-.37.29-.74.43-1.1a173.8,173.8,0,0,0,22.27,10.82L95,366a174.09,174.09,0,0,1-22.24-10.82l.46-1.09A185.94,185.94,0,0,0,96.1,365.22l.12-.38a187.61,187.61,0,0,1-22.81-11.15q.24-.57.48-1.08a196.74,196.74,0,0,0,23.4,11.49l.12-.38a195.36,195.36,0,0,1-23.35-11.47c.18-.38.35-.74.51-1.06A201.24,201.24,0,0,0,98.48,363Z" style="fill:#e0e0e0"></path><path d="M50.66,311c-3.18-.75-6.63,2.27-8.4,4.67A18.24,18.24,0,0,0,38.88,328c.26,2.94,1.42,7.89,4.49,9.36a4.22,4.22,0,0,0,1.43.4,4.75,4.75,0,0,0,3.59-1.37,12.6,12.6,0,0,0,2.29-3.21C53.62,327.8,60.62,313.39,50.66,311Zm86.4,52.87c-1.36-2.07-4.54-3.23-6.8-3.88a27.71,27.71,0,0,0-20.93,2.39,12.94,12.94,0,0,0-3.89,3.07A6.33,6.33,0,0,0,104,370.1c1,7.69,12.4,8.7,18.25,7.68a23.49,23.49,0,0,0,10.44-4.67,20.85,20.85,0,0,0,3-2.88C137.3,368.3,138.42,366,137.06,363.9Z" style="fill:#f0f0f0"></path><path d="M150.18,242.05a146.78,146.78,0,0,1-12-9.92q-2.4-2.17-4.63-4.46a285.2,285.2,0,0,0-39.34,40.88c-2.2,3.8,7.19,12.65,21.09,22.45,28.87,20.34,77.19,44.81,81.74,36.92l23.07-50.29C192.53,267.59,168.78,255.92,150.18,242.05Zm44.2,84.07a4.52,4.52,0,0,1-1.25.13c-11.23,0-48.86-18.75-76-37.86C99.64,276,97.41,271,97.14,270a280.13,280.13,0,0,1,33.58-35.59,4,4,0,0,1,5.31.05l0,0a149,149,0,0,0,12.22,10.11c16.6,12.39,37.46,23.33,63.58,33.35a3.94,3.94,0,0,1,2.17,5.33Z" style="fill:#37474f"></path><path d="M194.38,326.12a4.52,4.52,0,0,1-1.25.13c-11.23,0-48.86-18.75-76-37.86C99.64,276,97.41,271,97.14,270a280.13,280.13,0,0,1,33.58-35.59,4,4,0,0,1,5.31.05l0,0a149,149,0,0,0,12.22,10.11c16.6,12.39,37.46,23.33,63.58,33.35a3.94,3.94,0,0,1,2.17,5.33Z" style="fill:#37474f"></path><path d="M148.28,244.6c-2.52-1.87-4.91-3.78-7.19-5.69-14.46,13.43-27.75,33.58-33.26,42.49,2.49,2,5.55,4.33,9.33,7,4.37,3.08,9,6.15,13.77,9.13,9.77-15.87,24.25-37,29.85-44.38Q154.17,249,148.28,244.6Zm16.18,10.8a477.59,477.59,0,0,0-29.68,44.5q2.88,1.75,5.78,3.45c6.33-10.36,17.29-27.91,29.11-44.91Q167,256.94,164.46,255.4Z" style="fill:#455a64"></path><path d="M165.16,315.2c13.68,6.56,28,11.05,29.12,8s11.15-23,14-31,3.52-8.8,1.65-11.2-12.26-6.26-29.11-14.21-32.55-22.21-32.55-22.21c16.6,12.39,37.46,23.33,63.58,33.35a3.94,3.94,0,0,1,2.17,5.33l-19.65,42.84a4.52,4.52,0,0,1-1.25.13c-11.23,0-48.86-18.75-76-37.86C122.73,292.46,151.47,308.65,165.16,315.2Z" style="fill:#fff;opacity:0.30000000000000004"></path><path d="M220.2,323.79c-1.56,7.41-9.77,9-15.93,8.8a19,19,0,0,1-6.76-1.17c-2.38-1.37-1.28-4.21,0-5.86,2.16-2.8,11.83-8.4,17.9-8.59C219,316.85,221.29,318.58,220.2,323.79Z" style="fill:#263238"></path><path d="M220.2,323.79c-1.56,7.41-9.77,9-15.93,8.8a19,19,0,0,1-6.76-1.17c-2.38-1.37-1.28-4.21,0-5.86-1.2,2.26,5.14,3.66,10.79,1.64s9.86-6.4,7.11-10.23C219,316.85,221.29,318.58,220.2,323.79Z" style="fill:#455a64"></path><path d="M220.2,323.79c-1.56,7.41-9.77,9-15.93,8.8,6.13-.18,11-3.71,12.85-7.56s.45-7.57-1.72-8.06C219,316.85,221.29,318.58,220.2,323.79Z" style="fill:#37474f"></path></g></g></g><g id="freepik--Stanchion--inject-5"><g id="freepik--Ribbon--inject-5"><g id="freepik--ribbon--inject-5"><path d="M415.31,256.18h3.49v42h0a.88.88,0,0,1-.51.72,2.75,2.75,0,0,1-2.47,0,.88.88,0,0,1-.51-.72h0Z" style="fill:#BA68C8"></path><path d="M415.31,256.18h3.49v42h0a.88.88,0,0,1-.51.72,2.75,2.75,0,0,1-2.47,0,.88.88,0,0,1-.51-.72h0Z" style="fill:#fff;opacity:0.5"></path><path d="M413.23,254.15a3.82,3.82,0,1,0,3.82-3.81A3.82,3.82,0,0,0,413.23,254.15Z" style="fill:#BA68C8"></path><path d="M413.3,254.83a3.27,3.27,0,0,0,4,1.19c2.13-.89,2.77-4.2,1-5.47a3.81,3.81,0,1,1-5,4.28Z" style="opacity:0.15"></path><path d="M468.75,298.79c7.76,0,12.45-2.46,12.52-2.51a.53.53,0,0,0,.13-.75.53.53,0,0,0-.75-.14c-.12.09-14.2,6.69-32.5-3.88-18.47-10.66-30.54-32.57-30.63-32.78a.55.55,0,0,0-.72-.26.54.54,0,0,0-.26.72c.1.21,12.29,22.42,31.07,33.26C455.08,296.76,463.68,298.79,468.75,298.79Z" style="fill:#455a64"></path><path d="M479.23,293h3.5v42h0a.88.88,0,0,1-.51.71,2.75,2.75,0,0,1-2.47,0,.87.87,0,0,1-.52-.71h0Z" style="fill:#BA68C8"></path><path d="M479.23,293h3.5v42h0a.88.88,0,0,1-.51.71,2.75,2.75,0,0,1-2.47,0,.87.87,0,0,1-.52-.71h0Z" style="fill:#fff;opacity:0.5"></path><path d="M477.16,291A3.82,3.82,0,1,0,481,287.2,3.82,3.82,0,0,0,477.16,291Z" style="fill:#BA68C8"></path><path d="M477.23,291.69a3.27,3.27,0,0,0,4,1.19c2.13-.88,2.76-4.2,1-5.47a3.81,3.81,0,1,1-5,4.28Z" style="opacity:0.15"></path></g></g></g><g id="freepik--Character--inject-5"><g id="freepik--character--inject-5"><g id="freepik--Bottom--inject-5"><polygon points="303.73 394.84 306.83 393.82 305.92 391.73 303.97 393.39 303.73 394.84"></polygon><path d="M300.81,389.23s-.2,2-.26,2.59,2.54,2.67,3.18,3l.24-1.45a11,11,0,0,1,1.43,2.42,11.47,11.47,0,0,0,2.42,3.82c2,1.78,5.25,2.78,8.58,3s5.27-.47,6.24-1.15a2.19,2.19,0,0,0,1.11-2.36C323.55,398.31,300.81,389.23,300.81,389.23Z" style="fill:#263238"></path><path d="M310,382.87l.09-1.15c.62,0,.62,1.67,1.45,3.17a30,30,0,0,0,4.44,6.16c3.25,3.2,6.18,5.25,7.63,6.69,1.94,1.93-1.73,4.71-7.15,4.18-2.69-.27-7.43-1.82-8.71-3.46s-2-4.15-3-5.35-3.3-2.45-3.91-3.88c-.34-.78-.07-2.57.22-4.08s.39-3.53,1.18-3.33l0,.73c.3.62,1,1.66,3.17,2.12C306.48,384.9,309.71,385.13,310,382.87Z" style="fill:#37474f"></path><path d="M307.14,384.8a3,3,0,0,0,2.65-1.25l0,0a2.63,2.63,0,0,0,.61,2.23c.92,1.17,6.73,9.41,6.73,9.41s-5.44-6.82-6.48-8.11c-1.55-1.9-2.05-2.14-3.53-2.25Z" style="opacity:0.15"></path><path d="M308.41,387a.33.33,0,1,1-.28-.38A.34.34,0,0,1,308.41,387Z" style="opacity:0.15"></path><path d="M309.94,388.8a.34.34,0,0,1-.38.28.33.33,0,0,1,.1-.66A.33.33,0,0,1,309.94,388.8Z" style="opacity:0.15"></path><path d="M311.47,390.63a.34.34,0,0,1-.38.28.34.34,0,0,1-.28-.38.33.33,0,0,1,.38-.27A.31.31,0,0,1,311.47,390.63Z" style="opacity:0.15"></path><path d="M313,392.46a.34.34,0,0,1-.38.28.34.34,0,0,1-.28-.38.33.33,0,0,1,.38-.27A.31.31,0,0,1,313,392.46Z" style="opacity:0.15"></path><path d="M314.53,394.29a.33.33,0,0,1-.38.28.34.34,0,0,1-.28-.38.33.33,0,0,1,.38-.27A.32.32,0,0,1,314.53,394.29Z" style="opacity:0.15"></path><path d="M308.07,387.05a.18.18,0,0,1-.09,0,.14.14,0,0,1,0-.19,5.51,5.51,0,0,1,3.82-1.32h0a.13.13,0,0,1,.11.15.12.12,0,0,1-.14.11,5.33,5.33,0,0,0-3.62,1.26A.1.1,0,0,1,308.07,387.05Z" style="fill:#263238"></path><path d="M309.6,388.88a.2.2,0,0,1-.09-.05.13.13,0,0,1,0-.18,5.46,5.46,0,0,1,3.82-1.32h0a.12.12,0,0,1,.11.14.13.13,0,0,1-.14.12,5.35,5.35,0,0,0-3.62,1.25A.14.14,0,0,1,309.6,388.88Z" style="fill:#263238"></path><path d="M311.13,390.71a.12.12,0,0,1-.09,0,.14.14,0,0,1,0-.19,5.51,5.51,0,0,1,3.82-1.32h0a.14.14,0,0,1,0,.27,5.35,5.35,0,0,0-3.62,1.25A.1.1,0,0,1,311.13,390.71Z" style="fill:#263238"></path><path d="M312.66,392.55a.2.2,0,0,1-.09-.05.14.14,0,0,1,0-.19A5.51,5.51,0,0,1,316.4,391h0a.13.13,0,0,1,.11.15.13.13,0,0,1-.14.12,5.35,5.35,0,0,0-3.62,1.25A.14.14,0,0,1,312.66,392.55Z" style="fill:#263238"></path><path d="M314.19,394.38a.2.2,0,0,1-.09-.05.13.13,0,0,1,0-.18,5.5,5.5,0,0,1,3.82-1.33h0a.13.13,0,0,1,.11.15.13.13,0,0,1-.14.12,5.35,5.35,0,0,0-3.62,1.25A.14.14,0,0,1,314.19,394.38Z" style="fill:#263238"></path><path d="M286.27,402.4a12.13,12.13,0,0,1-1.6,5.87c-1,1.53-2.93,1.89-4.44,1.73a6.34,6.34,0,0,1-5.4-4.31c-.66-1.73-.54-3.79-.09-6.22Z" style="fill:#263238"></path><path d="M278.48,383.22c-.73,0-1,3.57-1.5,7.09-.51,3.77-1.71,5.86-2.14,8.41-.58,3.52-.36,5.11.85,7.28s6.59,4.39,8.81,1.36c1.82-2.47,1.94-5.24,1.84-8.78a87,87,0,0,1,0-9c.19-2.65.41-5.21-.22-5.52-.06.39-.11.88-.17,1.26s-.14,1.73-.56,1.74a5.57,5.57,0,0,1,0-1,1.12,1.12,0,0,0-.19-.86,1.36,1.36,0,0,0-.81-.37,20.28,20.28,0,0,0-2.18-.38c-.37,0-.73-.06-1.1-.06a12.38,12.38,0,0,0-1.93.05.65.65,0,0,0-.41.35,1.12,1.12,0,0,0,0,.41,2.92,2.92,0,0,1-.11.72c0,.11-.1.23-.21.21a.22.22,0,0,1-.11-.22c0-.43.06-.74.09-1.23,0-.23.05-.55.06-.78Z" style="fill:#37474f"></path><path d="M277.53,399.64a.26.26,0,1,0,.29-.23A.25.25,0,0,0,277.53,399.64Z" style="opacity:0.15"></path><path d="M277.82,397.2a.25.25,0,0,0,.22.28.26.26,0,1,0-.22-.28Z" style="opacity:0.15"></path><path d="M278.09,394.89a.27.27,0,0,0,.23.29.26.26,0,0,0,.28-.23.25.25,0,0,0-.22-.28A.26.26,0,0,0,278.09,394.89Z" style="opacity:0.15"></path><path d="M278.36,392.62a.26.26,0,0,0,.22.29.27.27,0,0,0,.29-.23.25.25,0,0,0-.22-.28A.25.25,0,0,0,278.36,392.62Z" style="opacity:0.15"></path><path d="M284.18,393.08a.25.25,0,0,0,.23.28.24.24,0,0,0,.28-.22.26.26,0,0,0-.22-.29A.27.27,0,0,0,284.18,393.08Z" style="opacity:0.15"></path><path d="M283.91,395.36a.27.27,0,0,0,.23.29.26.26,0,0,0,.28-.23.24.24,0,0,0-.22-.28A.26.26,0,0,0,283.91,395.36Z" style="opacity:0.15"></path><path d="M283.64,397.67a.25.25,0,0,0,.22.28.26.26,0,1,0-.22-.28Z" style="opacity:0.15"></path><path d="M283.35,400.11a.26.26,0,0,0,.51.06.26.26,0,0,0-.22-.29A.27.27,0,0,0,283.35,400.11Z" style="opacity:0.15"></path><polygon points="281.16 401.22 283.43 384.21 282.48 384.17 281.16 401.22" style="opacity:0.15"></polygon><path d="M277.77,399.79h0a11.62,11.62,0,0,1,5.74.44.12.12,0,0,0,.17-.05.13.13,0,0,0-.05-.18,11.71,11.71,0,0,0-5.91-.46.12.12,0,0,0-.1.15A.12.12,0,0,0,277.77,399.79Z" style="fill:#263238"></path><path d="M278.06,397.35a.09.09,0,0,0,.07,0c1.31-.59,4.42-.2,5.71.46a.13.13,0,0,0,.12-.24c-1.35-.68-4.56-1.08-5.94-.45a.12.12,0,0,0-.06.17A.11.11,0,0,0,278.06,397.35Z" style="fill:#263238"></path><path d="M278.33,395.05a.08.08,0,0,0,.07,0c1.31-.59,4.42-.2,5.71.45a.12.12,0,0,0,.17-.05.13.13,0,0,0,0-.18c-1.34-.68-4.56-1.08-5.94-.45a.13.13,0,0,0-.06.17A.12.12,0,0,0,278.33,395.05Z" style="fill:#263238"></path><path d="M278.6,392.78a.09.09,0,0,0,.07,0c1.31-.59,4.42-.2,5.71.45a.12.12,0,0,0,.17-.05.13.13,0,0,0-.05-.18c-1.35-.68-4.56-1.08-5.94-.45a.13.13,0,0,0-.06.17A.12.12,0,0,0,278.6,392.78Z" style="fill:#263238"></path><path d="M282.86,298c-2.34,21.46-3.75,51-3.75,51-.2,1.63-1.88,5.85-2.35,15.67-.42,8.54-.16,24.48-.16,24.48s5.12,2.94,10,1.47c0,0,5.84-26.27,7.93-36.39C296.86,343,299.09,328,299.09,328l.55,20.58s-.51,6.12-.46,10.41c.07,5,1.56,26.27,1.56,26.27s6.38,4,11.53.32c0,0,2.67-32.67,3-38.67.63-11.76.94-34.73.95-49.94Z" style="fill:#263238"></path><path d="M293.06,322.53q-.8,7.73-1.73,15.43-.46,3.85-1,7.71l-.49,3.85-.25,1.92c-.08.65-.22,1.28-.33,1.92-.92,5.09-2.37,14.34-3.37,19.42s-2.06,10.15-3.19,15.21q1.13-7.69,2.43-15.34c.88-5.1,2.26-14.35,3.21-19.44.11-.64.25-1.27.34-1.91l.26-1.92.54-3.84q.56-3.84,1.12-7.68Q291.78,330.18,293.06,322.53Z"></path><path d="M312.52,320.49c.4,4.82.54,9.67.61,14.5s.11,9.7-.21,14.52-.62,12.93-.95,17.76-.68,9.66-1.11,14.48q.09-7.26.38-14.51c.17-4.83.5-12.93.74-17.76l.19-3.62.05-.91,0-.89,0-1.82.12-7.25.1-7.25C312.53,325.32,312.52,322.91,312.52,320.49Z"></path><path d="M299.09,328l2.45-11.72s5.9-.68,9-3.28c0,0-2,3.5-7.62,4.73l-2.4,10.35-.86,20.5Z"></path></g><g id="freepik--Top--inject-5"><g id="freepik--Head--inject-5"><path d="M291.31,236.89a3.67,3.67,0,0,0-2.74,2.13c-.55,1-1,2.9.4,8.31a21.44,21.44,0,0,0,2.48,6,2.63,2.63,0,0,0,1.52,1.27l0-4.15-.1-2.88A11.93,11.93,0,0,0,295,243a7.42,7.42,0,0,0-.23-3.76Z" style="fill:#e0e0e0"></path><path d="M290.75,237c.44-2.32,3.45-5,9.14-5.24,4.67-.16,7.37,1.49,8.95,4.24s.43,6.25.43,6.25L294.64,241Z" style="fill:#e0e0e0"></path><path d="M292.26,237.73a3.2,3.2,0,0,1-1.78,2.58,3.65,3.65,0,0,0-1.86,3,3.58,3.58,0,0,1,1.93-2.28,8.83,8.83,0,0,0,1.8-1.25s-.15,1.08-1.94,2.46a3.87,3.87,0,0,0-1.35,3.61,3.36,3.36,0,0,1,1.23-2.61c1.35-1.15,3-1.67,3-3.39A2.86,2.86,0,0,0,292.26,237.73Z" style="fill:#fafafa"></path><path d="M289.13,251.59c1.61.86,3.14-.6,3.14-.6l.16,8.54s.14,1.65,2.74,3.14c3.68,2.12,5.28,2.65,6.84,4.87,1.26-3.66,2.82-5.37,1.12-8.17v-2.13s.66-.05,1.8-.21c1.91-.27,3.13-1.75,3.73-3.8a28.77,28.77,0,0,0,.26-13.09,4.45,4.45,0,0,0-1.52-2.58c-3.7-3-7.95-.92-11.15.26a6,6,0,0,1-4-.09c1.08,1.24,1.6,2.43,1.53,8.32a3.57,3.57,0,0,1-.83,1c-.71.59-1.25-1-1.82-1.6a2.39,2.39,0,0,0-3.74.78A3.94,3.94,0,0,0,289.13,251.59Z" style="fill:#ffa8a7"></path><path d="M299.63,242.39l-2.12.87a1.2,1.2,0,0,1,.65-1.53A1.11,1.11,0,0,1,299.63,242.39Z" style="fill:#37474f"></path><path d="M307.59,242.64l-2.2-.68a1.1,1.1,0,0,1,1.4-.78A1.22,1.22,0,0,1,307.59,242.64Z" style="fill:#37474f"></path><path d="M298.38,244.65a.93.93,0,0,0,.95.91.93.93,0,0,0,0-1.86A.94.94,0,0,0,298.38,244.65Z" style="fill:#263238"></path><path d="M305.31,244.43a.94.94,0,1,0,.92-.94A.85.85,0,0,0,305.31,244.43Z" style="fill:#263238"></path><path d="M301.83,242.64l.66,5.94,3.15-1.1A13.77,13.77,0,0,0,301.83,242.64Z" style="fill:#f28f8f"></path><path d="M293.74,245.56c.33,4.05,1.74,4.28,3.19,4.47,1.92.25,2.83-.81,6.24-.93a7.85,7.85,0,0,1,3.94,1c.88.33,1.59.2,1.9-.59a13.56,13.56,0,0,0,.5-4.41,33.12,33.12,0,0,1,.06,6.66,7.16,7.16,0,0,1-1.89,4.5c-1.42,1.29-4.45,1.89-8.3,1.18s-5.34-2.25-5.85-3.59c-1.63-4.33-1.12-6.42-1.64-7.23S293.74,245.56,293.74,245.56Z" style="fill:#e0e0e0"></path><path d="M302.88,249.87c-1.95,0-2.76.4-2.76,2.21s.05,2.55.78,2.63,1.5.12,1.51-.43a2.23,2.23,0,0,0-.16-1.22c-.32-.35-.22-.41.64-.42s.85.14.61.42-.14.85-.13,1.23.11.57,1.34.41c1.07-.14.86-1,.78-2.64C305.44,251,305.09,249.84,302.88,249.87Z" style="fill:#ffa8a7"></path><path d="M301.12,250.41l3.22.56a1.61,1.61,0,0,1-1.85,1.38A1.71,1.71,0,0,1,301.12,250.41Z" style="fill:#b16668"></path><path d="M301.53,250.92a1.76,1.76,0,0,0-.4,0,1.7,1.7,0,0,0,1.36,1.41,1.81,1.81,0,0,0,.52,0A1.49,1.49,0,0,0,301.53,250.92Z" style="fill:#f28f8f"></path></g><path d="M313.64,292.11h9.26a8.75,8.75,0,0,0,.19-2.9l0-.15c-.67-3.21-1.29-5.41-2.21-9-1.31-5.19-2.19-7.46-2.93-9.95-.57-1.89-3.53-4.35-5.47-5.75l1.2,24.05A16.06,16.06,0,0,1,313.64,292.11Z" style="fill:#263238"></path><path d="M288.71,259.56c-5.19,2.53-10.4,6.44-11.52,8,0,0,2.5,10,4.88,14.78S285.19,301,285.19,301s17.54,6.76,23.1,7.48,6.39-1.61,6.39-1.61.85-15.44.05-25.81c-.6-7.71-.93-15.23-3.21-17.09-1.48-1.2-7.66-4.87-7.66-4.87s-1.31,4.83-1.19,6.44C301,263.39,288.71,259.56,288.71,259.56Z" style="fill:#e0e0e0"></path><path d="M304.32,266.5a4,4,0,0,0,.48-2.14l-1.44-1.15-.11,1.88Z" style="fill:#BA68C8"></path><path d="M304.32,266.5a4,4,0,0,0,.48-2.14l-1.44-1.15-.11,1.88Z" style="opacity:0.25"></path><polygon points="301.48 265.22 297.73 262.84 294.73 264.99 300.46 267.7 301.48 265.22" style="fill:#BA68C8"></polygon><polygon points="301.48 265.22 297.73 262.84 294.73 264.99 300.46 267.7 301.48 265.22" style="opacity:0.25"></polygon><path d="M292.37,256.06V257c.12.74,1.29,2.39,4.88,4.21a12.69,12.69,0,0,1,4.95,3.93,5.6,5.6,0,0,0-2.85.11c-1.69.52-4.57,2.51-5.36,2.45s-1.78-2.3-3.76-4.58c-1.66-1.91-2.49-3-2.49-3s1.14-.91,2.21-2S291.71,256,292.37,256.06Z" style="fill:#f0f0f0"></path><path d="M302.67,265.08c1.46-.52,2.93.93,3.28.46s-.8-6.12-2.82-7.57v1.4Z" style="fill:#f0f0f0"></path><path d="M301.87,269.46a131.81,131.81,0,0,1,.14,17.93c-.1,2.19,2.88,6.77,3.63,6.71s2.33-4.16,2.64-6.57c0-5.88-3.14-15.14-4.54-18.32Z" style="fill:#BA68C8"></path><path d="M303.84,269.47c0-.09-.07-.18-.1-.26l-1.87.25.07.78A3.2,3.2,0,0,0,303.84,269.47Z" style="opacity:0.15"></path><path d="M301.48,265.22a7.71,7.71,0,0,1,1.77-.13,4.17,4.17,0,0,1,1.07,1.41,6.41,6.41,0,0,1-.58,2.71,2.24,2.24,0,0,1-1.87.25,4,4,0,0,1-1.41-1.76A3.55,3.55,0,0,1,301.48,265.22Z" style="fill:#BA68C8"></path><path d="M315.36,290.2c-.13-4.87-.16-23.82-2.91-25.87s-8.27-5.13-8.27-5.13c3.56,10,.89,21.62.89,21.62a90.32,90.32,0,0,1-6.69-8.21,113.5,113.5,0,0,1-8.8-14.19c-11.36,6.56-12.39,9.14-12.39,9.14-.21,6.28,4.37,20.17,4.67,26.12a167.28,167.28,0,0,1-.66,16.79s6.49,4.18,18.4,4.57,15.89-4.76,15.89-4.76S315.49,295.08,315.36,290.2Z"></path><path d="M298.57,275.58l-.11-.31-.32.1-2.92,1c-.7-1.18-1.44-2.31-2.14-3.47s-1.51-2.49-2.24-3.74-1.47-2.51-2.13-3.81a23.62,23.62,0,0,1-1.74-4,19.94,19.94,0,0,0,1.39,4.16c.6,1.34,1.27,2.64,1.95,3.93,1.39,2.57,2.9,5.08,4.44,7.54l.16.26.28-.1,2.87-1.05c.7,1.93,1.46,3.85,2.2,5.77l.05.13h.12c1.63.15,3.25.29,4.88.4-1.56-.28-3.13-.54-4.7-.79C299.94,279.61,299.29,277.58,298.57,275.58Zm11.67-1.05,0-.44a27.77,27.77,0,0,0-.9-6.16,37.48,37.48,0,0,0-2-5.87c.53,2,1,4,1.4,6a39.45,39.45,0,0,1,.7,5.61l-1.72-.24-.49-.07.08.49c.36,2,.77,4.07,1.18,6.1-.75.61-1.51,1.2-2.25,1.82.87-.51,1.71-1.06,2.57-1.59l.09-.06,0-.12c-.25-1.93-.5-3.86-.79-5.79l1.7.26Z" style="fill:#263238"></path><path d="M313.78,317s-.08.21-.4,1a19.12,19.12,0,0,1-2.29,3.47,9.29,9.29,0,0,1-2.34,1.94,1.84,1.84,0,0,1-1.2-.25c-.7-.36-1.61-.3-2.16-.9a4.38,4.38,0,0,0-.66-.7c-.38-.27-.92-.34-1.21-.72s-.23-.56-.41-.8-.75-.47-1.06-.79a1.34,1.34,0,0,1-.31-1,4.13,4.13,0,0,1,.94-2,1.9,1.9,0,0,1,.11-1.22,10.32,10.32,0,0,1,1.28-2.34c.36-.41,4.45-1,4.45-1l.83-.16a6,6,0,0,1,3.81,2.3C314.59,315.89,313.78,317,313.78,317Z" style="fill:#f28f8f"></path><path d="M312.63,301.05c-1.69,4.32-2.45,6.42-3.37,8.24s-1.39,2.42-2.55,2.73l6.67,5.94s1.87-3.57,2.89-5.59,3.22-7.95,3.22-7.95Z" style="fill:#f28f8f"></path><path d="M312.92,316.53c.29,1.82-1.29,4.23-1.31,4.26a17.9,17.9,0,0,0,1.77-2.83c.32-.77.4-1,.4-1s.81-1.09-.62-3.1a6,6,0,0,0-3.81-2.3S312.63,314.7,312.92,316.53Z" style="fill:#f28f8f"></path><path d="M302.68,316.27a8.82,8.82,0,0,1,2.47-2c.5-.19,1-.5.56-.5s-1-.13-1.08-.47-.32.09-.23.53-.21.63-.71,1.1A6.18,6.18,0,0,0,302.68,316.27Z" style="fill:#b16668"></path><path d="M312,301.93l-1.54,4.31a8.43,8.43,0,0,1,4.1,1.23,5.58,5.58,0,0,1,2.82,3.07l1.72-4.47Z" style="fill:#ebebeb"></path><path d="M322.83,297.74c-.35.95-4.55,10.8-4.55,10.8-.78-2.51-4.64-4.75-7.42-4.36l2.5-7.46,2-5.16s6.38-7.82,7.11-4.82c.21.87.4,1.64.56,2.32l0,.15C324.08,293.54,324,294.57,322.83,297.74Z" style="fill:#263238"></path><path d="M304.51,316.32c.65.33,1.4.44,2,.82a13,13,0,0,1,1.79,1.16,8.23,8.23,0,0,1,1.4,1.78,2.3,2.3,0,0,1,.64,1.72,2.51,2.51,0,0,1-.72,1,2.8,2.8,0,0,0,.88.23,3.78,3.78,0,0,0,1.48-.35,1.55,1.55,0,0,0,.48-.28,3.07,3.07,0,0,0,.51-.88.66.66,0,0,1,.27-.32.72.72,0,0,1,.32-.08,1.46,1.46,0,0,0,1-.44c.4-.51.07-1.33.47-1.84.23-.3.64-.4.87-.7a1.32,1.32,0,0,0,.23-.73,5,5,0,0,0-.3-1.94c-.18-.55-.36-1.09-.52-1.64a16.46,16.46,0,0,0-1.54-3.58c-.69-1.19-4.75-2.27-7.8-3.89-1.53-.81-18.13-14.47-18.13-14.47l-8.7,8.1s16.32,8.56,19,10.47a7.86,7.86,0,0,1,1.14.82c.32.32.56.76.86,1.11a32.19,32.19,0,0,0,2.44,2.52A8.4,8.4,0,0,0,304.51,316.32Z" style="fill:#ffa8a7"></path><path d="M300.55,301.93l2.25,1.91s-1.29.32-3,3a8.64,8.64,0,0,0-1.45,4l-2.47-1.62A8.44,8.44,0,0,1,300.55,301.93Z" style="fill:#ebebeb"></path><path d="M289.57,277.77c-.92-4.56-7.31-12.95-12.38-10.21,0,0-.8.1-1.06,3.36a66.83,66.83,0,0,0,.17,9.11c.22,3.84.56,6.36.89,10.49s.52,7.39,1.24,8.59c.91,1.52,1.66,2,9,6.22,2.86,1.66,8.94,4.66,8.94,4.66s-.29-4.74,4.95-7.6l-10.66-8.9S290.14,280.63,289.57,277.77Z" style="fill:#263238"></path><g id="freepik--Hat--inject-5"><path d="M310.05,241.19c-.23.41-.49.81-.76,1.2-.05-.36-.1-.73-.16-1.1a.62.62,0,0,0,0-.09c0-.06,0-.15-.05-.25s0-.18-.05-.27,0-.26-.07-.38l0-.16-.14-.09a12.15,12.15,0,0,0-6.43-1.44,20.56,20.56,0,0,0-8.73,2.55,14.64,14.64,0,0,0-5.15,4,2.39,2.39,0,0,0-1.06,1.13,3.89,3.89,0,0,0-.41,2.18c-3.63-2.41-4.6-6.92-2-11.55,3.45-6.11,11.85-10.1,18.77-8.92S313.5,235.08,310.05,241.19Z" style="fill:#37474f"></path><path d="M308.92,240.14l-.14-.09C308.86,240.07,308.91,240.1,308.92,240.14Z" style="fill:#ffa8a7"></path><path d="M287.87,243.48l-.53-1.74a16.61,16.61,0,0,1,10.77-7.82c7.76-1.93,10.35,1.5,10.35,1.5l.34,2.91s-3.64-1.94-10.42-.28A23.74,23.74,0,0,0,287.87,243.48Z" style="fill:#BA68C8"></path><path d="M309.12,241.2c0-.06,0-.15-.05-.25s0-.18-.05-.27,0-.26-.07-.38l0-.16-.14-.09a12.15,12.15,0,0,0-6.43-1.44,20.56,20.56,0,0,0-8.73,2.55,14.64,14.64,0,0,0-5.15,4l-.6-1.67a16.85,16.85,0,0,1,5.35-4.17c9-4.6,14.52-1.7,15.58-1A14.94,14.94,0,0,1,309.12,241.2Z"></path><path d="M292.46,241.81a16,16,0,0,1,10.38-3.93c4.53.08,6.92,1.5,7.78,2.17s.38,1.34-1.08,1a24.67,24.67,0,0,0-7.16-1.13A24,24,0,0,0,292.46,241.81Z" style="fill:#455a64"></path></g></g></g></g></svg>